<?xml version="1.0" encoding="utf-8" standalone="no"?>
<!DOCTYPE svg PUBLIC "-//W3C//DTD SVG 1.1//EN"
  "http://www.w3.org/Graphics/SVG/1.1/DTD/svg11.dtd">
<!-- Created with matplotlib (https://matplotlib.org/) -->
<svg height="576pt" version="1.1" viewBox="0 0 720 576" width="720pt" xmlns="http://www.w3.org/2000/svg" xmlns:xlink="http://www.w3.org/1999/xlink">
 <metadata>
  <rdf:RDF xmlns:cc="http://creativecommons.org/ns#" xmlns:dc="http://purl.org/dc/elements/1.1/" xmlns:rdf="http://www.w3.org/1999/02/22-rdf-syntax-ns#">
   <cc:Work>
    <dc:type rdf:resource="http://purl.org/dc/dcmitype/StillImage"/>
    <dc:date>2024-02-07T20:03:24.886802</dc:date>
    <dc:format>image/svg+xml</dc:format>
    <dc:creator>
     <cc:Agent>
      <dc:title>Matplotlib v3.3.4, https://matplotlib.org/</dc:title>
     </cc:Agent>
    </dc:creator>
   </cc:Work>
  </rdf:RDF>
 </metadata>
 <defs>
  <style type="text/css">*{stroke-linecap:butt;stroke-linejoin:round;}</style>
 </defs>
 <g id="figure_1">
  <g id="patch_1">
   <path d="M 0 576 
L 720 576 
L 720 0 
L 0 0 
z
" style="fill:none;"/>
  </g>
  <g id="axes_1">
   <g id="patch_2">
    <path d="M 90 504 
L 648 504 
L 648 69.12 
L 90 69.12 
z
" style="fill:#ffffff;"/>
   </g>
   <g id="PathCollection_1">
    <defs>
     <path d="M 0 0.866025 
C 0.229673 0.866025 0.449969 0.774776 0.612372 0.612372 
C 0.774776 0.449969 0.866025 0.229673 0.866025 0 
C 0.866025 -0.229673 0.774776 -0.449969 0.612372 -0.612372 
C 0.449969 -0.774776 0.229673 -0.866025 0 -0.866025 
C -0.229673 -0.866025 -0.449969 -0.774776 -0.612372 -0.612372 
C -0.774776 -0.449969 -0.866025 -0.229673 -0.866025 0 
C -0.866025 0.229673 -0.774776 0.449969 -0.612372 0.612372 
C -0.449969 0.774776 -0.229673 0.866025 0 0.866025 
z
" id="m11af5a9fbf" style="stroke:#000000;"/>
    </defs>
    <g clip-path="url(#p678ed0be65)">
     <use style="stroke:#000000;" x="115.363636" xlink:href="#m11af5a9fbf" y="201.906655"/>
     <use style="stroke:#000000;" x="120.241259" xlink:href="#m11af5a9fbf" y="319.315063"/>
     <use style="stroke:#000000;" x="125.118881" xlink:href="#m11af5a9fbf" y="287.347778"/>
     <use style="stroke:#000000;" x="129.996503" xlink:href="#m11af5a9fbf" y="320.447484"/>
     <use style="stroke:#000000;" x="134.874126" xlink:href="#m11af5a9fbf" y="281.72735"/>
     <use style="stroke:#000000;" x="139.751748" xlink:href="#m11af5a9fbf" y="390.683789"/>
     <use style="stroke:#000000;" x="144.629371" xlink:href="#m11af5a9fbf" y="303.82486"/>
     <use style="stroke:#000000;" x="149.506993" xlink:href="#m11af5a9fbf" y="316.903703"/>
     <use style="stroke:#000000;" x="154.384615" xlink:href="#m11af5a9fbf" y="397.505665"/>
     <use style="stroke:#000000;" x="159.262238" xlink:href="#m11af5a9fbf" y="343.058946"/>
     <use style="stroke:#000000;" x="164.13986" xlink:href="#m11af5a9fbf" y="279.315339"/>
     <use style="stroke:#000000;" x="169.017483" xlink:href="#m11af5a9fbf" y="264.880066"/>
     <use style="stroke:#000000;" x="173.895105" xlink:href="#m11af5a9fbf" y="265.669472"/>
     <use style="stroke:#000000;" x="178.772727" xlink:href="#m11af5a9fbf" y="234.322935"/>
     <use style="stroke:#000000;" x="183.65035" xlink:href="#m11af5a9fbf" y="254.005667"/>
     <use style="stroke:#000000;" x="188.527972" xlink:href="#m11af5a9fbf" y="244.278015"/>
     <use style="stroke:#000000;" x="193.405594" xlink:href="#m11af5a9fbf" y="258.094006"/>
     <use style="stroke:#000000;" x="198.283217" xlink:href="#m11af5a9fbf" y="239.126607"/>
     <use style="stroke:#000000;" x="203.160839" xlink:href="#m11af5a9fbf" y="253.166933"/>
     <use style="stroke:#000000;" x="208.038462" xlink:href="#m11af5a9fbf" y="243.276321"/>
     <use style="stroke:#000000;" x="212.916084" xlink:href="#m11af5a9fbf" y="318.735014"/>
     <use style="stroke:#000000;" x="217.793706" xlink:href="#m11af5a9fbf" y="284.203503"/>
     <use style="stroke:#000000;" x="222.671329" xlink:href="#m11af5a9fbf" y="484.232727"/>
     <use style="stroke:#000000;" x="227.548951" xlink:href="#m11af5a9fbf" y="388.085212"/>
     <use style="stroke:#000000;" x="232.426573" xlink:href="#m11af5a9fbf" y="326.295666"/>
     <use style="stroke:#000000;" x="237.304196" xlink:href="#m11af5a9fbf" y="240.939034"/>
     <use style="stroke:#000000;" x="242.181818" xlink:href="#m11af5a9fbf" y="328.058439"/>
     <use style="stroke:#000000;" x="247.059441" xlink:href="#m11af5a9fbf" y="303.484287"/>
     <use style="stroke:#000000;" x="251.937063" xlink:href="#m11af5a9fbf" y="456.165425"/>
     <use style="stroke:#000000;" x="256.814685" xlink:href="#m11af5a9fbf" y="351.857349"/>
     <use style="stroke:#000000;" x="261.692308" xlink:href="#m11af5a9fbf" y="273.358408"/>
     <use style="stroke:#000000;" x="266.56993" xlink:href="#m11af5a9fbf" y="336.623553"/>
     <use style="stroke:#000000;" x="271.447552" xlink:href="#m11af5a9fbf" y="274.87145"/>
     <use style="stroke:#000000;" x="276.325175" xlink:href="#m11af5a9fbf" y="336.16137"/>
     <use style="stroke:#000000;" x="281.202797" xlink:href="#m11af5a9fbf" y="340.815105"/>
     <use style="stroke:#000000;" x="286.08042" xlink:href="#m11af5a9fbf" y="339.869576"/>
     <use style="stroke:#000000;" x="290.958042" xlink:href="#m11af5a9fbf" y="343.039411"/>
     <use style="stroke:#000000;" x="295.835664" xlink:href="#m11af5a9fbf" y="421.414625"/>
     <use style="stroke:#000000;" x="300.713287" xlink:href="#m11af5a9fbf" y="292.812897"/>
     <use style="stroke:#000000;" x="305.590909" xlink:href="#m11af5a9fbf" y="446.298255"/>
     <use style="stroke:#000000;" x="310.468531" xlink:href="#m11af5a9fbf" y="483.251708"/>
     <use style="stroke:#000000;" x="315.346154" xlink:href="#m11af5a9fbf" y="304.773645"/>
     <use style="stroke:#000000;" x="320.223776" xlink:href="#m11af5a9fbf" y="218.646655"/>
     <use style="stroke:#000000;" x="325.101399" xlink:href="#m11af5a9fbf" y="268.301911"/>
     <use style="stroke:#000000;" x="329.979021" xlink:href="#m11af5a9fbf" y="255.504546"/>
     <use style="stroke:#000000;" x="334.856643" xlink:href="#m11af5a9fbf" y="415.694727"/>
     <use style="stroke:#000000;" x="339.734266" xlink:href="#m11af5a9fbf" y="395.942481"/>
     <use style="stroke:#000000;" x="344.611888" xlink:href="#m11af5a9fbf" y="453.356187"/>
     <use style="stroke:#000000;" x="349.48951" xlink:href="#m11af5a9fbf" y="340.295781"/>
     <use style="stroke:#000000;" x="354.367133" xlink:href="#m11af5a9fbf" y="360.234919"/>
     <use style="stroke:#000000;" x="359.244755" xlink:href="#m11af5a9fbf" y="353.116426"/>
     <use style="stroke:#000000;" x="364.122378" xlink:href="#m11af5a9fbf" y="303.303745"/>
     <use style="stroke:#000000;" x="369" xlink:href="#m11af5a9fbf" y="263.160596"/>
     <use style="stroke:#000000;" x="373.877622" xlink:href="#m11af5a9fbf" y="340.041491"/>
     <use style="stroke:#000000;" x="378.755245" xlink:href="#m11af5a9fbf" y="330.405006"/>
     <use style="stroke:#000000;" x="383.632867" xlink:href="#m11af5a9fbf" y="327.512253"/>
     <use style="stroke:#000000;" x="388.51049" xlink:href="#m11af5a9fbf" y="408.628493"/>
     <use style="stroke:#000000;" x="393.388112" xlink:href="#m11af5a9fbf" y="308.844077"/>
     <use style="stroke:#000000;" x="398.265734" xlink:href="#m11af5a9fbf" y="302.761466"/>
     <use style="stroke:#000000;" x="403.143357" xlink:href="#m11af5a9fbf" y="338.467562"/>
     <use style="stroke:#000000;" x="408.020979" xlink:href="#m11af5a9fbf" y="346.670613"/>
     <use style="stroke:#000000;" x="412.898601" xlink:href="#m11af5a9fbf" y="341.225844"/>
     <use style="stroke:#000000;" x="417.776224" xlink:href="#m11af5a9fbf" y="312.668032"/>
     <use style="stroke:#000000;" x="422.653846" xlink:href="#m11af5a9fbf" y="338.122757"/>
     <use style="stroke:#000000;" x="427.531469" xlink:href="#m11af5a9fbf" y="285.641658"/>
     <use style="stroke:#000000;" x="432.409091" xlink:href="#m11af5a9fbf" y="410.499201"/>
     <use style="stroke:#000000;" x="437.286713" xlink:href="#m11af5a9fbf" y="318.560007"/>
     <use style="stroke:#000000;" x="442.164336" xlink:href="#m11af5a9fbf" y="287.416967"/>
     <use style="stroke:#000000;" x="447.041958" xlink:href="#m11af5a9fbf" y="352.943047"/>
     <use style="stroke:#000000;" x="451.91958" xlink:href="#m11af5a9fbf" y="287.027229"/>
     <use style="stroke:#000000;" x="456.797203" xlink:href="#m11af5a9fbf" y="275.095297"/>
     <use style="stroke:#000000;" x="461.674825" xlink:href="#m11af5a9fbf" y="377.707509"/>
     <use style="stroke:#000000;" x="466.552448" xlink:href="#m11af5a9fbf" y="397.188372"/>
     <use style="stroke:#000000;" x="471.43007" xlink:href="#m11af5a9fbf" y="424.945056"/>
     <use style="stroke:#000000;" x="476.307692" xlink:href="#m11af5a9fbf" y="353.694521"/>
     <use style="stroke:#000000;" x="481.185315" xlink:href="#m11af5a9fbf" y="372.849625"/>
     <use style="stroke:#000000;" x="486.062937" xlink:href="#m11af5a9fbf" y="329.031319"/>
     <use style="stroke:#000000;" x="490.940559" xlink:href="#m11af5a9fbf" y="315.156721"/>
     <use style="stroke:#000000;" x="495.818182" xlink:href="#m11af5a9fbf" y="347.896969"/>
     <use style="stroke:#000000;" x="500.695804" xlink:href="#m11af5a9fbf" y="304.95777"/>
     <use style="stroke:#000000;" x="505.573427" xlink:href="#m11af5a9fbf" y="362.489342"/>
     <use style="stroke:#000000;" x="510.451049" xlink:href="#m11af5a9fbf" y="371.032966"/>
     <use style="stroke:#000000;" x="515.328671" xlink:href="#m11af5a9fbf" y="380.915438"/>
     <use style="stroke:#000000;" x="520.206294" xlink:href="#m11af5a9fbf" y="418.355005"/>
     <use style="stroke:#000000;" x="525.083916" xlink:href="#m11af5a9fbf" y="440.644942"/>
     <use style="stroke:#000000;" x="529.961538" xlink:href="#m11af5a9fbf" y="299.328225"/>
     <use style="stroke:#000000;" x="534.839161" xlink:href="#m11af5a9fbf" y="327.143679"/>
     <use style="stroke:#000000;" x="539.716783" xlink:href="#m11af5a9fbf" y="447.978653"/>
     <use style="stroke:#000000;" x="544.594406" xlink:href="#m11af5a9fbf" y="317.866977"/>
     <use style="stroke:#000000;" x="549.472028" xlink:href="#m11af5a9fbf" y="332.838506"/>
     <use style="stroke:#000000;" x="554.34965" xlink:href="#m11af5a9fbf" y="340.805175"/>
     <use style="stroke:#000000;" x="559.227273" xlink:href="#m11af5a9fbf" y="395.52751"/>
     <use style="stroke:#000000;" x="564.104895" xlink:href="#m11af5a9fbf" y="378.412423"/>
     <use style="stroke:#000000;" x="568.982517" xlink:href="#m11af5a9fbf" y="381.584862"/>
     <use style="stroke:#000000;" x="573.86014" xlink:href="#m11af5a9fbf" y="348.014671"/>
     <use style="stroke:#000000;" x="578.737762" xlink:href="#m11af5a9fbf" y="361.640189"/>
     <use style="stroke:#000000;" x="583.615385" xlink:href="#m11af5a9fbf" y="430.045997"/>
     <use style="stroke:#000000;" x="588.493007" xlink:href="#m11af5a9fbf" y="336.359332"/>
     <use style="stroke:#000000;" x="593.370629" xlink:href="#m11af5a9fbf" y="380.69908"/>
     <use style="stroke:#000000;" x="598.248252" xlink:href="#m11af5a9fbf" y="350.479592"/>
     <use style="stroke:#000000;" x="603.125874" xlink:href="#m11af5a9fbf" y="365.523728"/>
     <use style="stroke:#000000;" x="608.003497" xlink:href="#m11af5a9fbf" y="356.703837"/>
     <use style="stroke:#000000;" x="612.881119" xlink:href="#m11af5a9fbf" y="309.456196"/>
     <use style="stroke:#000000;" x="617.758741" xlink:href="#m11af5a9fbf" y="354.854455"/>
     <use style="stroke:#000000;" x="622.636364" xlink:href="#m11af5a9fbf" y="378.275022"/>
    </g>
   </g>
   <g id="matplotlib.axis_1">
    <g id="xtick_1">
     <g id="line2d_1">
      <defs>
       <path d="M 0 0 
L 0 5 
" id="m9d1d122e4a" style="stroke:#000000;stroke-width:0.8;"/>
      </defs>
      <g>
       <use style="stroke:#000000;stroke-width:0.8;" x="115.363636" xlink:href="#m9d1d122e4a" y="504"/>
      </g>
     </g>
     <g id="text_1">
      <!-- 0 -->
      <g transform="translate(107.410511 531.496094)scale(0.25 -0.25)">
       <defs>
        <path d="M 31.78125 66.40625 
Q 24.171875 66.40625 20.328125 58.90625 
Q 16.5 51.421875 16.5 36.375 
Q 16.5 21.390625 20.328125 13.890625 
Q 24.171875 6.390625 31.78125 6.390625 
Q 39.453125 6.390625 43.28125 13.890625 
Q 47.125 21.390625 47.125 36.375 
Q 47.125 51.421875 43.28125 58.90625 
Q 39.453125 66.40625 31.78125 66.40625 
z
M 31.78125 74.21875 
Q 44.046875 74.21875 50.515625 64.515625 
Q 56.984375 54.828125 56.984375 36.375 
Q 56.984375 17.96875 50.515625 8.265625 
Q 44.046875 -1.421875 31.78125 -1.421875 
Q 19.53125 -1.421875 13.0625 8.265625 
Q 6.59375 17.96875 6.59375 36.375 
Q 6.59375 54.828125 13.0625 64.515625 
Q 19.53125 74.21875 31.78125 74.21875 
z
" id="DejaVuSans-48"/>
       </defs>
       <use xlink:href="#DejaVuSans-48"/>
      </g>
     </g>
    </g>
    <g id="xtick_2">
     <g id="line2d_2">
      <g>
       <use style="stroke:#000000;stroke-width:0.8;" x="216.980769" xlink:href="#m9d1d122e4a" y="504"/>
      </g>
     </g>
     <g id="text_2">
      <!-- 200 -->
      <g transform="translate(193.121394 531.496094)scale(0.25 -0.25)">
       <defs>
        <path d="M 19.1875 8.296875 
L 53.609375 8.296875 
L 53.609375 0 
L 7.328125 0 
L 7.328125 8.296875 
Q 12.9375 14.109375 22.625 23.890625 
Q 32.328125 33.6875 34.8125 36.53125 
Q 39.546875 41.84375 41.421875 45.53125 
Q 43.3125 49.21875 43.3125 52.78125 
Q 43.3125 58.59375 39.234375 62.25 
Q 35.15625 65.921875 28.609375 65.921875 
Q 23.96875 65.921875 18.8125 64.3125 
Q 13.671875 62.703125 7.8125 59.421875 
L 7.8125 69.390625 
Q 13.765625 71.78125 18.9375 73 
Q 24.125 74.21875 28.421875 74.21875 
Q 39.75 74.21875 46.484375 68.546875 
Q 53.21875 62.890625 53.21875 53.421875 
Q 53.21875 48.921875 51.53125 44.890625 
Q 49.859375 40.875 45.40625 35.40625 
Q 44.1875 33.984375 37.640625 27.21875 
Q 31.109375 20.453125 19.1875 8.296875 
z
" id="DejaVuSans-50"/>
       </defs>
       <use xlink:href="#DejaVuSans-50"/>
       <use x="63.623047" xlink:href="#DejaVuSans-48"/>
       <use x="127.246094" xlink:href="#DejaVuSans-48"/>
      </g>
     </g>
    </g>
    <g id="xtick_3">
     <g id="line2d_3">
      <g>
       <use style="stroke:#000000;stroke-width:0.8;" x="318.597902" xlink:href="#m9d1d122e4a" y="504"/>
      </g>
     </g>
     <g id="text_3">
      <!-- 400 -->
      <g transform="translate(294.738527 531.496094)scale(0.25 -0.25)">
       <defs>
        <path d="M 37.796875 64.3125 
L 12.890625 25.390625 
L 37.796875 25.390625 
z
M 35.203125 72.90625 
L 47.609375 72.90625 
L 47.609375 25.390625 
L 58.015625 25.390625 
L 58.015625 17.1875 
L 47.609375 17.1875 
L 47.609375 0 
L 37.796875 0 
L 37.796875 17.1875 
L 4.890625 17.1875 
L 4.890625 26.703125 
z
" id="DejaVuSans-52"/>
       </defs>
       <use xlink:href="#DejaVuSans-52"/>
       <use x="63.623047" xlink:href="#DejaVuSans-48"/>
       <use x="127.246094" xlink:href="#DejaVuSans-48"/>
      </g>
     </g>
    </g>
    <g id="xtick_4">
     <g id="line2d_4">
      <g>
       <use style="stroke:#000000;stroke-width:0.8;" x="420.215035" xlink:href="#m9d1d122e4a" y="504"/>
      </g>
     </g>
     <g id="text_4">
      <!-- 600 -->
      <g transform="translate(396.35566 531.496094)scale(0.25 -0.25)">
       <defs>
        <path d="M 33.015625 40.375 
Q 26.375 40.375 22.484375 35.828125 
Q 18.609375 31.296875 18.609375 23.390625 
Q 18.609375 15.53125 22.484375 10.953125 
Q 26.375 6.390625 33.015625 6.390625 
Q 39.65625 6.390625 43.53125 10.953125 
Q 47.40625 15.53125 47.40625 23.390625 
Q 47.40625 31.296875 43.53125 35.828125 
Q 39.65625 40.375 33.015625 40.375 
z
M 52.59375 71.296875 
L 52.59375 62.3125 
Q 48.875 64.0625 45.09375 64.984375 
Q 41.3125 65.921875 37.59375 65.921875 
Q 27.828125 65.921875 22.671875 59.328125 
Q 17.53125 52.734375 16.796875 39.40625 
Q 19.671875 43.65625 24.015625 45.921875 
Q 28.375 48.1875 33.59375 48.1875 
Q 44.578125 48.1875 50.953125 41.515625 
Q 57.328125 34.859375 57.328125 23.390625 
Q 57.328125 12.15625 50.6875 5.359375 
Q 44.046875 -1.421875 33.015625 -1.421875 
Q 20.359375 -1.421875 13.671875 8.265625 
Q 6.984375 17.96875 6.984375 36.375 
Q 6.984375 53.65625 15.1875 63.9375 
Q 23.390625 74.21875 37.203125 74.21875 
Q 40.921875 74.21875 44.703125 73.484375 
Q 48.484375 72.75 52.59375 71.296875 
z
" id="DejaVuSans-54"/>
       </defs>
       <use xlink:href="#DejaVuSans-54"/>
       <use x="63.623047" xlink:href="#DejaVuSans-48"/>
       <use x="127.246094" xlink:href="#DejaVuSans-48"/>
      </g>
     </g>
    </g>
    <g id="xtick_5">
     <g id="line2d_5">
      <g>
       <use style="stroke:#000000;stroke-width:0.8;" x="521.832168" xlink:href="#m9d1d122e4a" y="504"/>
      </g>
     </g>
     <g id="text_5">
      <!-- 800 -->
      <g transform="translate(497.972793 531.496094)scale(0.25 -0.25)">
       <defs>
        <path d="M 31.78125 34.625 
Q 24.75 34.625 20.71875 30.859375 
Q 16.703125 27.09375 16.703125 20.515625 
Q 16.703125 13.921875 20.71875 10.15625 
Q 24.75 6.390625 31.78125 6.390625 
Q 38.8125 6.390625 42.859375 10.171875 
Q 46.921875 13.96875 46.921875 20.515625 
Q 46.921875 27.09375 42.890625 30.859375 
Q 38.875 34.625 31.78125 34.625 
z
M 21.921875 38.8125 
Q 15.578125 40.375 12.03125 44.71875 
Q 8.5 49.078125 8.5 55.328125 
Q 8.5 64.0625 14.71875 69.140625 
Q 20.953125 74.21875 31.78125 74.21875 
Q 42.671875 74.21875 48.875 69.140625 
Q 55.078125 64.0625 55.078125 55.328125 
Q 55.078125 49.078125 51.53125 44.71875 
Q 48 40.375 41.703125 38.8125 
Q 48.828125 37.15625 52.796875 32.3125 
Q 56.78125 27.484375 56.78125 20.515625 
Q 56.78125 9.90625 50.3125 4.234375 
Q 43.84375 -1.421875 31.78125 -1.421875 
Q 19.734375 -1.421875 13.25 4.234375 
Q 6.78125 9.90625 6.78125 20.515625 
Q 6.78125 27.484375 10.78125 32.3125 
Q 14.796875 37.15625 21.921875 38.8125 
z
M 18.3125 54.390625 
Q 18.3125 48.734375 21.84375 45.5625 
Q 25.390625 42.390625 31.78125 42.390625 
Q 38.140625 42.390625 41.71875 45.5625 
Q 45.3125 48.734375 45.3125 54.390625 
Q 45.3125 60.0625 41.71875 63.234375 
Q 38.140625 66.40625 31.78125 66.40625 
Q 25.390625 66.40625 21.84375 63.234375 
Q 18.3125 60.0625 18.3125 54.390625 
z
" id="DejaVuSans-56"/>
       </defs>
       <use xlink:href="#DejaVuSans-56"/>
       <use x="63.623047" xlink:href="#DejaVuSans-48"/>
       <use x="127.246094" xlink:href="#DejaVuSans-48"/>
      </g>
     </g>
    </g>
    <g id="xtick_6">
     <g id="line2d_6">
      <g>
       <use style="stroke:#000000;stroke-width:0.8;" x="623.449301" xlink:href="#m9d1d122e4a" y="504"/>
      </g>
     </g>
     <g id="text_6">
      <!-- 1000 -->
      <g transform="translate(591.636801 531.496094)scale(0.25 -0.25)">
       <defs>
        <path d="M 12.40625 8.296875 
L 28.515625 8.296875 
L 28.515625 63.921875 
L 10.984375 60.40625 
L 10.984375 69.390625 
L 28.421875 72.90625 
L 38.28125 72.90625 
L 38.28125 8.296875 
L 54.390625 8.296875 
L 54.390625 0 
L 12.40625 0 
z
" id="DejaVuSans-49"/>
       </defs>
       <use xlink:href="#DejaVuSans-49"/>
       <use x="63.623047" xlink:href="#DejaVuSans-48"/>
       <use x="127.246094" xlink:href="#DejaVuSans-48"/>
       <use x="190.869141" xlink:href="#DejaVuSans-48"/>
      </g>
     </g>
    </g>
    <g id="text_7">
     <!-- Time (ns) -->
     <g transform="translate(310.255859 559.691406)scale(0.25 -0.25)">
      <defs>
       <path d="M -0.296875 72.90625 
L 61.375 72.90625 
L 61.375 64.59375 
L 35.5 64.59375 
L 35.5 0 
L 25.59375 0 
L 25.59375 64.59375 
L -0.296875 64.59375 
z
" id="DejaVuSans-84"/>
       <path d="M 9.421875 54.6875 
L 18.40625 54.6875 
L 18.40625 0 
L 9.421875 0 
z
M 9.421875 75.984375 
L 18.40625 75.984375 
L 18.40625 64.59375 
L 9.421875 64.59375 
z
" id="DejaVuSans-105"/>
       <path d="M 52 44.1875 
Q 55.375 50.25 60.0625 53.125 
Q 64.75 56 71.09375 56 
Q 79.640625 56 84.28125 50.015625 
Q 88.921875 44.046875 88.921875 33.015625 
L 88.921875 0 
L 79.890625 0 
L 79.890625 32.71875 
Q 79.890625 40.578125 77.09375 44.375 
Q 74.3125 48.1875 68.609375 48.1875 
Q 61.625 48.1875 57.5625 43.546875 
Q 53.515625 38.921875 53.515625 30.90625 
L 53.515625 0 
L 44.484375 0 
L 44.484375 32.71875 
Q 44.484375 40.625 41.703125 44.40625 
Q 38.921875 48.1875 33.109375 48.1875 
Q 26.21875 48.1875 22.15625 43.53125 
Q 18.109375 38.875 18.109375 30.90625 
L 18.109375 0 
L 9.078125 0 
L 9.078125 54.6875 
L 18.109375 54.6875 
L 18.109375 46.1875 
Q 21.1875 51.21875 25.484375 53.609375 
Q 29.78125 56 35.6875 56 
Q 41.65625 56 45.828125 52.96875 
Q 50 49.953125 52 44.1875 
z
" id="DejaVuSans-109"/>
       <path d="M 56.203125 29.59375 
L 56.203125 25.203125 
L 14.890625 25.203125 
Q 15.484375 15.921875 20.484375 11.0625 
Q 25.484375 6.203125 34.421875 6.203125 
Q 39.59375 6.203125 44.453125 7.46875 
Q 49.3125 8.734375 54.109375 11.28125 
L 54.109375 2.78125 
Q 49.265625 0.734375 44.1875 -0.34375 
Q 39.109375 -1.421875 33.890625 -1.421875 
Q 20.796875 -1.421875 13.15625 6.1875 
Q 5.515625 13.8125 5.515625 26.8125 
Q 5.515625 40.234375 12.765625 48.109375 
Q 20.015625 56 32.328125 56 
Q 43.359375 56 49.78125 48.890625 
Q 56.203125 41.796875 56.203125 29.59375 
z
M 47.21875 32.234375 
Q 47.125 39.59375 43.09375 43.984375 
Q 39.0625 48.390625 32.421875 48.390625 
Q 24.90625 48.390625 20.390625 44.140625 
Q 15.875 39.890625 15.1875 32.171875 
z
" id="DejaVuSans-101"/>
       <path id="DejaVuSans-32"/>
       <path d="M 31 75.875 
Q 24.46875 64.65625 21.28125 53.65625 
Q 18.109375 42.671875 18.109375 31.390625 
Q 18.109375 20.125 21.3125 9.0625 
Q 24.515625 -2 31 -13.1875 
L 23.1875 -13.1875 
Q 15.875 -1.703125 12.234375 9.375 
Q 8.59375 20.453125 8.59375 31.390625 
Q 8.59375 42.28125 12.203125 53.3125 
Q 15.828125 64.359375 23.1875 75.875 
z
" id="DejaVuSans-40"/>
       <path d="M 54.890625 33.015625 
L 54.890625 0 
L 45.90625 0 
L 45.90625 32.71875 
Q 45.90625 40.484375 42.875 44.328125 
Q 39.84375 48.1875 33.796875 48.1875 
Q 26.515625 48.1875 22.3125 43.546875 
Q 18.109375 38.921875 18.109375 30.90625 
L 18.109375 0 
L 9.078125 0 
L 9.078125 54.6875 
L 18.109375 54.6875 
L 18.109375 46.1875 
Q 21.34375 51.125 25.703125 53.5625 
Q 30.078125 56 35.796875 56 
Q 45.21875 56 50.046875 50.171875 
Q 54.890625 44.34375 54.890625 33.015625 
z
" id="DejaVuSans-110"/>
       <path d="M 44.28125 53.078125 
L 44.28125 44.578125 
Q 40.484375 46.53125 36.375 47.5 
Q 32.28125 48.484375 27.875 48.484375 
Q 21.1875 48.484375 17.84375 46.4375 
Q 14.5 44.390625 14.5 40.28125 
Q 14.5 37.15625 16.890625 35.375 
Q 19.28125 33.59375 26.515625 31.984375 
L 29.59375 31.296875 
Q 39.15625 29.25 43.1875 25.515625 
Q 47.21875 21.78125 47.21875 15.09375 
Q 47.21875 7.46875 41.1875 3.015625 
Q 35.15625 -1.421875 24.609375 -1.421875 
Q 20.21875 -1.421875 15.453125 -0.5625 
Q 10.6875 0.296875 5.421875 2 
L 5.421875 11.28125 
Q 10.40625 8.6875 15.234375 7.390625 
Q 20.0625 6.109375 24.8125 6.109375 
Q 31.15625 6.109375 34.5625 8.28125 
Q 37.984375 10.453125 37.984375 14.40625 
Q 37.984375 18.0625 35.515625 20.015625 
Q 33.0625 21.96875 24.703125 23.78125 
L 21.578125 24.515625 
Q 13.234375 26.265625 9.515625 29.90625 
Q 5.8125 33.546875 5.8125 39.890625 
Q 5.8125 47.609375 11.28125 51.796875 
Q 16.75 56 26.8125 56 
Q 31.78125 56 36.171875 55.265625 
Q 40.578125 54.546875 44.28125 53.078125 
z
" id="DejaVuSans-115"/>
       <path d="M 8.015625 75.875 
L 15.828125 75.875 
Q 23.140625 64.359375 26.78125 53.3125 
Q 30.421875 42.28125 30.421875 31.390625 
Q 30.421875 20.453125 26.78125 9.375 
Q 23.140625 -1.703125 15.828125 -13.1875 
L 8.015625 -13.1875 
Q 14.5 -2 17.703125 9.0625 
Q 20.90625 20.125 20.90625 31.390625 
Q 20.90625 42.671875 17.703125 53.65625 
Q 14.5 64.65625 8.015625 75.875 
z
" id="DejaVuSans-41"/>
      </defs>
      <use xlink:href="#DejaVuSans-84"/>
      <use x="57.958984" xlink:href="#DejaVuSans-105"/>
      <use x="85.742188" xlink:href="#DejaVuSans-109"/>
      <use x="183.154297" xlink:href="#DejaVuSans-101"/>
      <use x="244.677734" xlink:href="#DejaVuSans-32"/>
      <use x="276.464844" xlink:href="#DejaVuSans-40"/>
      <use x="315.478516" xlink:href="#DejaVuSans-110"/>
      <use x="378.857422" xlink:href="#DejaVuSans-115"/>
      <use x="430.957031" xlink:href="#DejaVuSans-41"/>
     </g>
    </g>
   </g>
   <g id="matplotlib.axis_2">
    <g id="ytick_1">
     <g id="line2d_7">
      <defs>
       <path d="M 0 0 
L -5 0 
" id="m9dc988bbf3" style="stroke:#000000;stroke-width:0.8;"/>
      </defs>
      <g>
       <use style="stroke:#000000;stroke-width:0.8;" x="90" xlink:href="#m9dc988bbf3" y="471.878497"/>
      </g>
     </g>
     <g id="text_8">
      <!-- 42 -->
      <g transform="translate(49.6875 481.376544)scale(0.25 -0.25)">
       <use xlink:href="#DejaVuSans-52"/>
       <use x="63.623047" xlink:href="#DejaVuSans-50"/>
      </g>
     </g>
    </g>
    <g id="ytick_2">
     <g id="line2d_8">
      <g>
       <use style="stroke:#000000;stroke-width:0.8;" x="90" xlink:href="#m9dc988bbf3" y="386.52561"/>
      </g>
     </g>
     <g id="text_9">
      <!-- 44 -->
      <g transform="translate(49.6875 396.023657)scale(0.25 -0.25)">
       <use xlink:href="#DejaVuSans-52"/>
       <use x="63.623047" xlink:href="#DejaVuSans-52"/>
      </g>
     </g>
    </g>
    <g id="ytick_3">
     <g id="line2d_9">
      <g>
       <use style="stroke:#000000;stroke-width:0.8;" x="90" xlink:href="#m9dc988bbf3" y="301.172723"/>
      </g>
     </g>
     <g id="text_10">
      <!-- 46 -->
      <g transform="translate(49.6875 310.67077)scale(0.25 -0.25)">
       <use xlink:href="#DejaVuSans-52"/>
       <use x="63.623047" xlink:href="#DejaVuSans-54"/>
      </g>
     </g>
    </g>
    <g id="ytick_4">
     <g id="line2d_10">
      <g>
       <use style="stroke:#000000;stroke-width:0.8;" x="90" xlink:href="#m9dc988bbf3" y="215.819835"/>
      </g>
     </g>
     <g id="text_11">
      <!-- 48 -->
      <g transform="translate(49.6875 225.317882)scale(0.25 -0.25)">
       <use xlink:href="#DejaVuSans-52"/>
       <use x="63.623047" xlink:href="#DejaVuSans-56"/>
      </g>
     </g>
    </g>
    <g id="ytick_5">
     <g id="line2d_11">
      <g>
       <use style="stroke:#000000;stroke-width:0.8;" x="90" xlink:href="#m9dc988bbf3" y="130.466948"/>
      </g>
     </g>
     <g id="text_12">
      <!-- 50 -->
      <g transform="translate(49.6875 139.964995)scale(0.25 -0.25)">
       <defs>
        <path d="M 10.796875 72.90625 
L 49.515625 72.90625 
L 49.515625 64.59375 
L 19.828125 64.59375 
L 19.828125 46.734375 
Q 21.96875 47.46875 24.109375 47.828125 
Q 26.265625 48.1875 28.421875 48.1875 
Q 40.625 48.1875 47.75 41.5 
Q 54.890625 34.8125 54.890625 23.390625 
Q 54.890625 11.625 47.5625 5.09375 
Q 40.234375 -1.421875 26.90625 -1.421875 
Q 22.3125 -1.421875 17.546875 -0.640625 
Q 12.796875 0.140625 7.71875 1.703125 
L 7.71875 11.625 
Q 12.109375 9.234375 16.796875 8.0625 
Q 21.484375 6.890625 26.703125 6.890625 
Q 35.15625 6.890625 40.078125 11.328125 
Q 45.015625 15.765625 45.015625 23.390625 
Q 45.015625 31 40.078125 35.4375 
Q 35.15625 39.890625 26.703125 39.890625 
Q 22.75 39.890625 18.8125 39.015625 
Q 14.890625 38.140625 10.796875 36.28125 
z
" id="DejaVuSans-53"/>
       </defs>
       <use xlink:href="#DejaVuSans-53"/>
       <use x="63.623047" xlink:href="#DejaVuSans-48"/>
      </g>
     </g>
    </g>
    <g id="text_13">
     <!-- Norm of the end-to-end-vector (Å) -->
     <g transform="translate(40.488281 500.145938)rotate(-90)scale(0.25 -0.25)">
      <defs>
       <path d="M 9.8125 72.90625 
L 23.09375 72.90625 
L 55.421875 11.921875 
L 55.421875 72.90625 
L 64.984375 72.90625 
L 64.984375 0 
L 51.703125 0 
L 19.390625 60.984375 
L 19.390625 0 
L 9.8125 0 
z
" id="DejaVuSans-78"/>
       <path d="M 30.609375 48.390625 
Q 23.390625 48.390625 19.1875 42.75 
Q 14.984375 37.109375 14.984375 27.296875 
Q 14.984375 17.484375 19.15625 11.84375 
Q 23.34375 6.203125 30.609375 6.203125 
Q 37.796875 6.203125 41.984375 11.859375 
Q 46.1875 17.53125 46.1875 27.296875 
Q 46.1875 37.015625 41.984375 42.703125 
Q 37.796875 48.390625 30.609375 48.390625 
z
M 30.609375 56 
Q 42.328125 56 49.015625 48.375 
Q 55.71875 40.765625 55.71875 27.296875 
Q 55.71875 13.875 49.015625 6.21875 
Q 42.328125 -1.421875 30.609375 -1.421875 
Q 18.84375 -1.421875 12.171875 6.21875 
Q 5.515625 13.875 5.515625 27.296875 
Q 5.515625 40.765625 12.171875 48.375 
Q 18.84375 56 30.609375 56 
z
" id="DejaVuSans-111"/>
       <path d="M 41.109375 46.296875 
Q 39.59375 47.171875 37.8125 47.578125 
Q 36.03125 48 33.890625 48 
Q 26.265625 48 22.1875 43.046875 
Q 18.109375 38.09375 18.109375 28.8125 
L 18.109375 0 
L 9.078125 0 
L 9.078125 54.6875 
L 18.109375 54.6875 
L 18.109375 46.1875 
Q 20.953125 51.171875 25.484375 53.578125 
Q 30.03125 56 36.53125 56 
Q 37.453125 56 38.578125 55.875 
Q 39.703125 55.765625 41.0625 55.515625 
z
" id="DejaVuSans-114"/>
       <path d="M 37.109375 75.984375 
L 37.109375 68.5 
L 28.515625 68.5 
Q 23.6875 68.5 21.796875 66.546875 
Q 19.921875 64.59375 19.921875 59.515625 
L 19.921875 54.6875 
L 34.71875 54.6875 
L 34.71875 47.703125 
L 19.921875 47.703125 
L 19.921875 0 
L 10.890625 0 
L 10.890625 47.703125 
L 2.296875 47.703125 
L 2.296875 54.6875 
L 10.890625 54.6875 
L 10.890625 58.5 
Q 10.890625 67.625 15.140625 71.796875 
Q 19.390625 75.984375 28.609375 75.984375 
z
" id="DejaVuSans-102"/>
       <path d="M 18.3125 70.21875 
L 18.3125 54.6875 
L 36.8125 54.6875 
L 36.8125 47.703125 
L 18.3125 47.703125 
L 18.3125 18.015625 
Q 18.3125 11.328125 20.140625 9.421875 
Q 21.96875 7.515625 27.59375 7.515625 
L 36.8125 7.515625 
L 36.8125 0 
L 27.59375 0 
Q 17.1875 0 13.234375 3.875 
Q 9.28125 7.765625 9.28125 18.015625 
L 9.28125 47.703125 
L 2.6875 47.703125 
L 2.6875 54.6875 
L 9.28125 54.6875 
L 9.28125 70.21875 
z
" id="DejaVuSans-116"/>
       <path d="M 54.890625 33.015625 
L 54.890625 0 
L 45.90625 0 
L 45.90625 32.71875 
Q 45.90625 40.484375 42.875 44.328125 
Q 39.84375 48.1875 33.796875 48.1875 
Q 26.515625 48.1875 22.3125 43.546875 
Q 18.109375 38.921875 18.109375 30.90625 
L 18.109375 0 
L 9.078125 0 
L 9.078125 75.984375 
L 18.109375 75.984375 
L 18.109375 46.1875 
Q 21.34375 51.125 25.703125 53.5625 
Q 30.078125 56 35.796875 56 
Q 45.21875 56 50.046875 50.171875 
Q 54.890625 44.34375 54.890625 33.015625 
z
" id="DejaVuSans-104"/>
       <path d="M 45.40625 46.390625 
L 45.40625 75.984375 
L 54.390625 75.984375 
L 54.390625 0 
L 45.40625 0 
L 45.40625 8.203125 
Q 42.578125 3.328125 38.25 0.953125 
Q 33.9375 -1.421875 27.875 -1.421875 
Q 17.96875 -1.421875 11.734375 6.484375 
Q 5.515625 14.40625 5.515625 27.296875 
Q 5.515625 40.1875 11.734375 48.09375 
Q 17.96875 56 27.875 56 
Q 33.9375 56 38.25 53.625 
Q 42.578125 51.265625 45.40625 46.390625 
z
M 14.796875 27.296875 
Q 14.796875 17.390625 18.875 11.75 
Q 22.953125 6.109375 30.078125 6.109375 
Q 37.203125 6.109375 41.296875 11.75 
Q 45.40625 17.390625 45.40625 27.296875 
Q 45.40625 37.203125 41.296875 42.84375 
Q 37.203125 48.484375 30.078125 48.484375 
Q 22.953125 48.484375 18.875 42.84375 
Q 14.796875 37.203125 14.796875 27.296875 
z
" id="DejaVuSans-100"/>
       <path d="M 4.890625 31.390625 
L 31.203125 31.390625 
L 31.203125 23.390625 
L 4.890625 23.390625 
z
" id="DejaVuSans-45"/>
       <path d="M 2.984375 54.6875 
L 12.5 54.6875 
L 29.59375 8.796875 
L 46.6875 54.6875 
L 56.203125 54.6875 
L 35.6875 0 
L 23.484375 0 
z
" id="DejaVuSans-118"/>
       <path d="M 48.78125 52.59375 
L 48.78125 44.1875 
Q 44.96875 46.296875 41.140625 47.34375 
Q 37.3125 48.390625 33.40625 48.390625 
Q 24.65625 48.390625 19.8125 42.84375 
Q 14.984375 37.3125 14.984375 27.296875 
Q 14.984375 17.28125 19.8125 11.734375 
Q 24.65625 6.203125 33.40625 6.203125 
Q 37.3125 6.203125 41.140625 7.25 
Q 44.96875 8.296875 48.78125 10.40625 
L 48.78125 2.09375 
Q 45.015625 0.34375 40.984375 -0.53125 
Q 36.96875 -1.421875 32.421875 -1.421875 
Q 20.0625 -1.421875 12.78125 6.34375 
Q 5.515625 14.109375 5.515625 27.296875 
Q 5.515625 40.671875 12.859375 48.328125 
Q 20.21875 56 33.015625 56 
Q 37.15625 56 41.109375 55.140625 
Q 45.0625 54.296875 48.78125 52.59375 
z
" id="DejaVuSans-99"/>
       <path d="M 41.609375 79.390625 
Q 41.609375 82.46875 39.421875 84.640625 
Q 37.25 86.8125 34.1875 86.8125 
Q 31.0625 86.8125 28.9375 84.6875 
Q 26.8125 82.5625 26.8125 79.390625 
Q 26.8125 76.3125 28.953125 74.15625 
Q 31.109375 72.015625 34.1875 72.015625 
Q 37.25 72.015625 39.421875 74.15625 
Q 41.609375 76.3125 41.609375 79.390625 
z
M 34.1875 63.1875 
L 20.90625 26.90625 
L 47.515625 26.90625 
z
M 26.8125 68.21875 
Q 23.828125 70.21875 22.3125 73.015625 
Q 20.796875 75.828125 20.796875 79.390625 
Q 20.796875 85.015625 24.671875 88.921875 
Q 28.5625 92.828125 34.1875 92.828125 
Q 39.75 92.828125 43.671875 88.890625 
Q 47.609375 84.96875 47.609375 79.390625 
Q 47.609375 75.984375 46.0625 73.09375 
Q 44.53125 70.21875 41.609375 68.21875 
L 67.578125 0 
L 57.328125 0 
L 50.6875 18.703125 
L 17.828125 18.703125 
L 11.1875 0 
L 0.78125 0 
z
" id="DejaVuSans-197"/>
      </defs>
      <use xlink:href="#DejaVuSans-78"/>
      <use x="74.804688" xlink:href="#DejaVuSans-111"/>
      <use x="135.986328" xlink:href="#DejaVuSans-114"/>
      <use x="175.349609" xlink:href="#DejaVuSans-109"/>
      <use x="272.761719" xlink:href="#DejaVuSans-32"/>
      <use x="304.548828" xlink:href="#DejaVuSans-111"/>
      <use x="365.730469" xlink:href="#DejaVuSans-102"/>
      <use x="400.935547" xlink:href="#DejaVuSans-32"/>
      <use x="432.722656" xlink:href="#DejaVuSans-116"/>
      <use x="471.931641" xlink:href="#DejaVuSans-104"/>
      <use x="535.310547" xlink:href="#DejaVuSans-101"/>
      <use x="596.833984" xlink:href="#DejaVuSans-32"/>
      <use x="628.621094" xlink:href="#DejaVuSans-101"/>
      <use x="690.144531" xlink:href="#DejaVuSans-110"/>
      <use x="753.523438" xlink:href="#DejaVuSans-100"/>
      <use x="817" xlink:href="#DejaVuSans-45"/>
      <use x="853.083984" xlink:href="#DejaVuSans-116"/>
      <use x="892.292969" xlink:href="#DejaVuSans-111"/>
      <use x="955.349609" xlink:href="#DejaVuSans-45"/>
      <use x="991.433594" xlink:href="#DejaVuSans-101"/>
      <use x="1052.957031" xlink:href="#DejaVuSans-110"/>
      <use x="1116.335938" xlink:href="#DejaVuSans-100"/>
      <use x="1179.8125" xlink:href="#DejaVuSans-45"/>
      <use x="1213.271484" xlink:href="#DejaVuSans-118"/>
      <use x="1272.451172" xlink:href="#DejaVuSans-101"/>
      <use x="1333.974609" xlink:href="#DejaVuSans-99"/>
      <use x="1388.955078" xlink:href="#DejaVuSans-116"/>
      <use x="1428.164062" xlink:href="#DejaVuSans-111"/>
      <use x="1489.345703" xlink:href="#DejaVuSans-114"/>
      <use x="1530.458984" xlink:href="#DejaVuSans-32"/>
      <use x="1562.246094" xlink:href="#DejaVuSans-40"/>
      <use x="1601.259766" xlink:href="#DejaVuSans-197"/>
      <use x="1669.667969" xlink:href="#DejaVuSans-41"/>
     </g>
    </g>
   </g>
   <g id="line2d_12">
    <path clip-path="url(#p678ed0be65)" d="M 90 343.427683 
L 648 343.427683 
" style="fill:none;stroke:#ff0000;stroke-dasharray:11.1,4.8;stroke-dashoffset:0;stroke-width:3;"/>
   </g>
   <g id="line2d_13">
    <path clip-path="url(#p678ed0be65)" d="M 90 88.887273 
L 648 88.887273 
" style="fill:none;stroke:#008000;stroke-dasharray:11.1,4.8;stroke-dashoffset:0;stroke-width:3;"/>
   </g>
   <g id="patch_3">
    <path d="M 90 504 
L 90 69.12 
" style="fill:none;stroke:#000000;stroke-linecap:square;stroke-linejoin:miter;stroke-width:0.8;"/>
   </g>
   <g id="patch_4">
    <path d="M 648 504 
L 648 69.12 
" style="fill:none;stroke:#000000;stroke-linecap:square;stroke-linejoin:miter;stroke-width:0.8;"/>
   </g>
   <g id="patch_5">
    <path d="M 90 504 
L 648 504 
" style="fill:none;stroke:#000000;stroke-linecap:square;stroke-linejoin:miter;stroke-width:0.8;"/>
   </g>
   <g id="patch_6">
    <path d="M 90 69.12 
L 648 69.12 
" style="fill:none;stroke:#000000;stroke-linecap:square;stroke-linejoin:miter;stroke-width:0.8;"/>
   </g>
   <g id="text_14">
    <g id="patch_7">
     <path d="M 160.164336 166.872026 
L 375.414336 166.872026 
Q 382.914336 166.872026 382.914336 159.372026 
L 382.914336 101.56187 
Q 382.914336 94.06187 375.414336 94.06187 
L 160.164336 94.06187 
Q 152.664336 94.06187 152.664336 101.56187 
L 152.664336 159.372026 
Q 152.664336 166.872026 160.164336 166.872026 
z
" style="fill:#ffffff;opacity:0.7;stroke:#000000;stroke-linejoin:miter;"/>
    </g>
    <!-- $ \langle {R}⟩$ = 45.0±0.6 Å -->
    <g transform="translate(160.164336 123.112651)scale(0.25 -0.25)">
     <defs>
      <path d="M 8.9375 31.34375 
L 22.703125 75.875 
L 31 75.875 
L 17.234375 31.34375 
L 31 -13.1875 
L 22.703125 -13.1875 
z
" id="DejaVuSans-10216"/>
      <path d="M 25.203125 64.796875 
L 20.21875 38.921875 
L 32.90625 38.921875 
Q 40.375 38.921875 44.984375 43.046875 
Q 49.609375 47.171875 49.609375 53.8125 
Q 49.609375 59.125 46.5 61.953125 
Q 43.40625 64.796875 37.59375 64.796875 
z
M 43.3125 35.015625 
Q 46.4375 34.28125 48.515625 31.390625 
Q 50.59375 28.515625 53.328125 19.921875 
L 59.515625 0 
L 49.125 0 
L 43.40625 18.703125 
Q 41.21875 25.921875 38.328125 28.359375 
Q 35.453125 30.8125 29.5 30.8125 
L 18.609375 30.8125 
L 12.59375 0 
L 2.6875 0 
L 16.890625 72.90625 
L 39.109375 72.90625 
Q 49.21875 72.90625 54.609375 68.328125 
Q 60.015625 63.765625 60.015625 55.171875 
Q 60.015625 47.5625 55.421875 41.984375 
Q 50.828125 36.421875 43.3125 35.015625 
z
" id="DejaVuSans-Oblique-82"/>
      <path d="M 30.078125 31.34375 
L 16.3125 -13.1875 
L 8.015625 -13.1875 
L 21.78125 31.34375 
L 8.015625 75.875 
L 16.3125 75.875 
z
" id="DejaVuSans-10217"/>
      <path d="M 10.59375 45.40625 
L 73.1875 45.40625 
L 73.1875 37.203125 
L 10.59375 37.203125 
z
M 10.59375 25.484375 
L 73.1875 25.484375 
L 73.1875 17.1875 
L 10.59375 17.1875 
z
" id="DejaVuSans-61"/>
      <path d="M 10.6875 12.40625 
L 21 12.40625 
L 21 0 
L 10.6875 0 
z
" id="DejaVuSans-46"/>
      <path d="M 46 62.703125 
L 46 43.796875 
L 73.1875 43.796875 
L 73.1875 35.5 
L 46 35.5 
L 46 16.609375 
L 37.796875 16.609375 
L 37.796875 35.5 
L 10.59375 35.5 
L 10.59375 43.796875 
L 37.796875 43.796875 
L 37.796875 62.703125 
z
M 10.59375 8.296875 
L 73.1875 8.296875 
L 73.1875 0 
L 10.59375 0 
z
" id="DejaVuSans-177"/>
     </defs>
     <use transform="translate(0 0.171875)" xlink:href="#DejaVuSans-10216"/>
     <use transform="translate(39.013672 0.171875)" xlink:href="#DejaVuSans-Oblique-82"/>
     <use transform="translate(108.496094 0.171875)" xlink:href="#DejaVuSans-10217"/>
     <use transform="translate(147.509766 0.171875)" xlink:href="#DejaVuSans-32"/>
     <use transform="translate(179.296875 0.171875)" xlink:href="#DejaVuSans-61"/>
     <use transform="translate(263.085938 0.171875)" xlink:href="#DejaVuSans-32"/>
     <use transform="translate(294.873047 0.171875)" xlink:href="#DejaVuSans-52"/>
     <use transform="translate(358.496094 0.171875)" xlink:href="#DejaVuSans-53"/>
     <use transform="translate(422.119141 0.171875)" xlink:href="#DejaVuSans-46"/>
     <use transform="translate(453.90625 0.171875)" xlink:href="#DejaVuSans-48"/>
     <use transform="translate(517.529297 0.171875)" xlink:href="#DejaVuSans-177"/>
     <use transform="translate(601.318359 0.171875)" xlink:href="#DejaVuSans-48"/>
     <use transform="translate(664.941406 0.171875)" xlink:href="#DejaVuSans-46"/>
     <use transform="translate(696.728516 0.171875)" xlink:href="#DejaVuSans-54"/>
     <use transform="translate(760.351562 0.171875)" xlink:href="#DejaVuSans-32"/>
     <use transform="translate(792.138672 0.171875)" xlink:href="#DejaVuSans-197"/>
    </g>
    <!-- $ \langle {L}⟩$ = 51.0±0.1 Å -->
    <g transform="translate(161.914336 154.172808)scale(0.25 -0.25)">
     <defs>
      <path d="M 16.796875 72.90625 
L 26.703125 72.90625 
L 14.203125 8.203125 
L 49.703125 8.203125 
L 48.09375 0 
L 2.6875 0 
z
" id="DejaVuSans-Oblique-76"/>
     </defs>
     <use transform="translate(0 0.171875)" xlink:href="#DejaVuSans-10216"/>
     <use transform="translate(39.013672 0.171875)" xlink:href="#DejaVuSans-Oblique-76"/>
     <use transform="translate(94.726562 0.171875)" xlink:href="#DejaVuSans-10217"/>
     <use transform="translate(133.740234 0.171875)" xlink:href="#DejaVuSans-32"/>
     <use transform="translate(165.527344 0.171875)" xlink:href="#DejaVuSans-61"/>
     <use transform="translate(249.316406 0.171875)" xlink:href="#DejaVuSans-32"/>
     <use transform="translate(281.103516 0.171875)" xlink:href="#DejaVuSans-53"/>
     <use transform="translate(344.726562 0.171875)" xlink:href="#DejaVuSans-49"/>
     <use transform="translate(408.349609 0.171875)" xlink:href="#DejaVuSans-46"/>
     <use transform="translate(440.136719 0.171875)" xlink:href="#DejaVuSans-48"/>
     <use transform="translate(503.759766 0.171875)" xlink:href="#DejaVuSans-177"/>
     <use transform="translate(587.548828 0.171875)" xlink:href="#DejaVuSans-48"/>
     <use transform="translate(651.171875 0.171875)" xlink:href="#DejaVuSans-46"/>
     <use transform="translate(682.958984 0.171875)" xlink:href="#DejaVuSans-49"/>
     <use transform="translate(746.582031 0.171875)" xlink:href="#DejaVuSans-32"/>
     <use transform="translate(778.369141 0.171875)" xlink:href="#DejaVuSans-197"/>
    </g>
   </g>
   <g id="legend_1">
    <g id="patch_8">
     <path d="M 513.5 200.260625 
L 630.5 200.260625 
Q 635.5 200.260625 635.5 195.260625 
L 635.5 86.62 
Q 635.5 81.62 630.5 81.62 
L 513.5 81.62 
Q 508.5 81.62 508.5 86.62 
L 508.5 195.260625 
Q 508.5 200.260625 513.5 200.260625 
z
" style="fill:#ffffff;opacity:0.8;stroke:#000000;stroke-linejoin:miter;"/>
    </g>
    <g id="line2d_14">
     <path d="M 518.5 101.866094 
L 568.5 101.866094 
" style="fill:none;stroke:#ff0000;stroke-dasharray:11.1,4.8;stroke-dashoffset:0;stroke-width:3;"/>
    </g>
    <g id="line2d_15"/>
    <g id="text_15">
     <!-- $\langle R⟩$ -->
     <g transform="translate(588.5 110.616094)scale(0.25 -0.25)">
      <use transform="translate(0 0.125)" xlink:href="#DejaVuSans-10216"/>
      <use transform="translate(39.013672 0.125)" xlink:href="#DejaVuSans-Oblique-82"/>
      <use transform="translate(108.496094 0.125)" xlink:href="#DejaVuSans-10217"/>
     </g>
    </g>
    <g id="line2d_16">
     <path d="M 518.5 138.561406 
L 568.5 138.561406 
" style="fill:none;stroke:#008000;stroke-dasharray:11.1,4.8;stroke-dashoffset:0;stroke-width:3;"/>
    </g>
    <g id="line2d_17"/>
    <g id="text_16">
     <!-- $\langle L⟩$ -->
     <g transform="translate(588.5 147.311406)scale(0.25 -0.25)">
      <use transform="translate(0 0.125)" xlink:href="#DejaVuSans-10216"/>
      <use transform="translate(39.013672 0.125)" xlink:href="#DejaVuSans-Oblique-76"/>
      <use transform="translate(94.726562 0.125)" xlink:href="#DejaVuSans-10217"/>
     </g>
    </g>
    <g id="PathCollection_2">
     <g>
      <use style="stroke:#000000;" x="543.5" xlink:href="#m11af5a9fbf" y="177.698125"/>
     </g>
    </g>
    <g id="text_17">
     <!-- ${|R|}$ -->
     <g transform="translate(588.5 184.260625)scale(0.25 -0.25)">
      <defs>
       <path d="M 21 76.421875 
L 21 -23.578125 
L 12.703125 -23.578125 
L 12.703125 76.421875 
z
" id="DejaVuSans-124"/>
      </defs>
      <use transform="translate(0 0.578125)" xlink:href="#DejaVuSans-124"/>
      <use transform="translate(33.691406 0.578125)" xlink:href="#DejaVuSans-Oblique-82"/>
      <use transform="translate(103.173828 0.578125)" xlink:href="#DejaVuSans-124"/>
     </g>
    </g>
   </g>
  </g>
 </g>
 <defs>
  <clipPath id="p678ed0be65">
   <rect height="434.88" width="558" x="90" y="69.12"/>
  </clipPath>
 </defs>
</svg>
